<?xml version="1.0" encoding="utf-8"?>
<!-- Generator: Adobe Illustrator 17.0.0, SVG Export Plug-In . SVG Version: 6.00 Build 0)  -->
<!DOCTYPE svg PUBLIC "-//W3C//DTD SVG 1.0//EN" "http://www.w3.org/TR/2001/REC-SVG-20010904/DTD/svg10.dtd">
<svg version="1.0" id="Layer_1" xmlns="http://www.w3.org/2000/svg" xmlns:xlink="http://www.w3.org/1999/xlink" x="0px" y="0px"
	 width="220px" height="286px" viewBox="0 0 220 286" enable-background="new 0 0 220 286" xml:space="preserve">
<g>
	<polygon points="220,0.362 220,0.198 192,16.484 192,16.742 110.138,65.556 28,16.578 28,16.484 0,0.198 0,188.73 28,205.11 
		28,48.585 97.096,89.82 110.237,97.27 123.23,89.82 192,48.75 192,78.574 109.974,127.388 55,94.627 55,96.81 55,126.679 
		55,158.391 55,180.173 55,190.443 96.932,215.416 110.155,222.866 123.491,215.416 165,190.771 165,158.718 110.474,191.152 
		83,174.771 83,143.104 97.13,151.651 110.254,159.102 123.301,151.651 192,110.581 192,205.274 220,188.894 	"/>
	<polygon points="28,205.11 28,237.117 97.096,278.352 110.237,285.802 123.23,278.352 192,237.281 192,205.274 110.138,254.088 	
		"/>
</g>
</svg>
